<?xml version="1.0" encoding="utf-8"?>
<!-- Generator: Adobe Illustrator 22.0.0, SVG Export Plug-In . SVG Version: 6.00 Build 0)  -->
<svg version="1.1" id="Layer_1" xmlns="http://www.w3.org/2000/svg" xmlns:xlink="http://www.w3.org/1999/xlink" x="0px" y="0px"
	 viewBox="0 0 840 555" style="enable-background:new 0 0 840 555;" xml:space="preserve">
<style type="text/css">
	.st0{fill:none;stroke:#E52941;stroke-width:2;stroke-miterlimit:10;}
	.st1{fill:#E52941;}
</style>
<g id="particles">
	<circle class="st0" cx="229.1" cy="498.7" r="9"/>
	<line class="st0" x1="556.1" y1="489.7" x2="538.9" y2="519.6"/>
	<line class="st0" x1="795.1" y1="263.7" x2="777.9" y2="293.6"/>
	<line class="st0" x1="39.1" y1="195.7" x2="4.1" y2="256.3"/>
	<line class="st0" x1="20.1" y1="156.7" x2="2.9" y2="186.6"/>
	<line class="st0" x1="571.1" y1="493.7" x2="536.1" y2="554.3"/>
	<line class="st0" x1="425.1" y1="285.7" x2="407.2" y2="316.7"/>
	<circle class="st1" cx="400.1" cy="7.7" r="7"/>
	<circle class="st1" cx="830.1" cy="82.7" r="7"/>
	<circle class="st1" cx="11.1" cy="75.7" r="7"/>
	<circle class="st0" cx="177.1" cy="59.7" r="9"/>
	<polygon class="st0" points="766.2,40.7 758.1,54.7 750,40.7 	"/>
	<polygon class="st0" points="136.2,337.7 128.1,351.7 120,337.7 	"/>
	<polygon class="st1" points="813,148.7 821.1,134.7 829.2,148.7 	"/>
	<polygon class="st1" points="503,89.7 511.1,75.7 519.2,89.7 	"/>
	<polygon class="st1" points="17.7,449.7 28.1,431.7 38.5,449.7 	"/>
</g>
</svg>
