<?xml version="1.0" encoding="utf-8"?>
<!-- Generator: Adobe Illustrator 22.0.0, SVG Export Plug-In . SVG Version: 6.00 Build 0)  -->
<svg version="1.1" id="Layer_1" xmlns="http://www.w3.org/2000/svg" xmlns:xlink="http://www.w3.org/1999/xlink" x="0px" y="0px"
	 viewBox="0 0 1280 788.2" style="enable-background:new 0 0 1280 788.2;" xml:space="preserve">
<style type="text/css">
	.st0{fill:#0E3345;}
	.st1{fill:#E52941;}
</style>
<g id="background">
	<path class="st0" d="M0,0v515.4c54.6,0,125.1,9.6,201.3,46.1c130.8,62.6,278.2,171,389.7,171c176.5,0,286-87.5,356.5-108
		s206-18,262.5-41.5s70-49,70-49V0H0z"/>
	<path class="st1" d="M389,662.9c-62.7-33.4-127-72.3-187.8-101.4C125.1,525.1,54.6,515.4,0,515.4V616c49.2,0,101.6,32.5,153,85
		c35.8,36.5,43.5,67.5,112,84S404,754,389,662.9L389,662.9z"/>
	<path class="st1" d="M1280,534V326.2c-48.5,0-81.3,141.6-127.5,207.3c-21.5,30.6-45,33-62,15s34-86-5.5-91.5s-58,79-84.5,127.5
		c-11.8,21.7-33.5,33.8-53,40c70.5-20.5,206-18,262.5-41.5S1280,534,1280,534z"/>
</g>
</svg>
